# xmcd CD database file
#
# Track frame offsets:
#	150
#	17607
#	33833
#	50772
#	69454
#	87520
#	106787
#	123552
#	151813
#	169990
#	197433
#	214048
#	236182
#	255296
#
# Disc length: 3771 seconds
#
# Revision: 0
# Processed by: cddbd v1.5.2PL0 Copyright (c) Steve Scherf et al.
# Submitted via: CDex 1.70beta2
#
DISCID=b50eb90e
DTITLE=Charis - Weightless
DYEAR=2007
DGENRE=Jazz
TTITLE0=Amusing
TTITLE1=Weightless
TTITLE2=Don't ya
TTITLE3=The Power
TTITLE4=Keep Watch
TTITLE5=Was It Not I
TTITLE6=That's Just Life
TTITLE7=Jasmine Laine
TTITLE8=Middle of the Night
TTITLE9=Take Me Back
TTITLE10=Jehovah
TTITLE11=Mirror
TTITLE12=Wisdom
TTITLE13=To Live Again
EXTD=YEAR: 2007
EXTT0=
EXTT1=
EXTT2=
EXTT3=
EXTT4=
EXTT5=
EXTT6=
EXTT7=
EXTT8=
EXTT9=
EXTT10=
EXTT11=
EXTT12=
EXTT13=
PLAYORDER=
